<?xml version="1.0" encoding="utf-8" standalone="no"?>
<!DOCTYPE svg PUBLIC "-//W3C//DTD SVG 1.1//EN"
  "http://www.w3.org/Graphics/SVG/1.1/DTD/svg11.dtd">
<svg xmlns:xlink="http://www.w3.org/1999/xlink" width="169.92pt" height="107.92pt" viewBox="0 0 169.92 107.92" xmlns="http://www.w3.org/2000/svg" version="1.1">
 <metadata>
  <rdf:RDF xmlns:dc="http://purl.org/dc/elements/1.1/" xmlns:cc="http://creativecommons.org/ns#" xmlns:rdf="http://www.w3.org/1999/02/22-rdf-syntax-ns#">
   <cc:Work>
    <dc:type rdf:resource="http://purl.org/dc/dcmitype/StillImage"/>
    <dc:date>2024-05-07T22:51:06.551183</dc:date>
    <dc:format>image/svg+xml</dc:format>
    <dc:creator>
     <cc:Agent>
      <dc:title>Matplotlib v3.8.4, https://matplotlib.org/</dc:title>
     </cc:Agent>
    </dc:creator>
   </cc:Work>
  </rdf:RDF>
 </metadata>
 <defs>
  <style type="text/css">*{stroke-linejoin: round; stroke-linecap: butt}</style>
 </defs>
 <g id="figure_1">
  <g id="patch_1">
   <path d="M 0 107.92 
L 169.92 107.92 
L 169.92 0 
L 0 0 
z
" style="fill: #ffffff"/>
  </g>
  <g id="axes_1">
   <g id="patch_2">
    <path d="M 3.6 104.32 
L 166.32 104.32 
L 166.32 3.6 
L 3.6 3.6 
z
" style="fill: #ffffff"/>
   </g>
   <g id="matplotlib.axis_1"/>
   <g id="matplotlib.axis_2"/>
   <g id="line2d_1">
    <path d="M 10.996364 13.450358 
L 11.615306 32.613203 
L 12.853191 8.178182 
L 13.472134 33.167555 
L 14.091076 33.064192 
L 14.710019 13.833915 
L 15.328962 11.661091 
L 15.947904 20.22782 
L 16.566847 18.910504 
L 17.185789 18.165091 
L 17.804732 17.83349 
L 18.423674 18.71088 
L 19.042617 14.259863 
L 19.66156 19.456304 
L 20.280502 54.311698 
L 20.899445 21.190666 
L 21.518387 22.386452 
L 22.13733 22.499413 
L 22.756272 21.452181 
L 23.994157 21.072481 
L 24.6131 24.398573 
L 25.232043 26.010853 
L 25.850985 26.580716 
L 26.469928 30.096474 
L 27.08887 29.380382 
L 27.707813 32.575791 
L 28.326755 35.018539 
L 28.945698 31.046234 
L 29.564641 60.251899 
L 30.183583 14.736702 
L 30.802526 37.912121 
L 31.421468 40.321043 
L 32.040411 40.497028 
L 32.659353 36.711973 
L 33.278296 40.541813 
L 33.897238 38.644779 
L 34.516181 43.270551 
L 35.135124 42.558976 
L 35.754066 43.569338 
L 36.373009 42.36615 
L 36.991951 41.586405 
L 37.610894 44.950421 
L 38.229836 51.46285 
L 38.848779 48.5279 
L 39.467722 47.785139 
L 40.086664 49.565379 
L 40.705607 52.287827 
L 41.324549 52.595857 
L 41.943492 54.714025 
L 42.562434 54.888382 
L 43.181377 55.789991 
L 43.80032 60.629487 
L 44.419262 62.399592 
L 45.038205 60.825752 
L 45.657147 68.954135 
L 46.27609 68.294438 
L 46.895032 66.221519 
L 47.513975 71.261744 
L 48.132917 62.969046 
L 48.75186 99.741818 
L 49.370803 92.973474 
L 49.989745 62.977339 
L 50.608688 68.174266 
L 51.22763 94.242872 
L 51.846573 93.443284 
L 52.465515 92.193701 
L 53.084458 69.550787 
L 53.703401 91.666831 
L 54.322343 86.629086 
L 54.941286 69.497988 
L 55.560228 65.082528 
L 56.179171 69.23754 
L 56.798113 69.966626 
L 57.417056 72.55577 
L 58.035998 68.659164 
L 58.654941 70.574605 
L 59.273884 66.961209 
L 59.892826 67.320489 
L 60.511769 66.797626 
L 61.130711 66.480631 
L 61.749654 68.649889 
L 62.368596 67.050922 
L 62.987539 70.416812 
L 63.606482 69.212426 
L 64.844367 72.256201 
L 65.463309 72.376674 
L 66.082252 72.102284 
L 66.701194 49.308221 
L 67.320137 88.554709 
L 67.939079 71.15627 
L 68.558022 87.49541 
L 69.176965 66.932471 
L 69.795907 68.367508 
L 70.41485 85.653923 
L 71.033792 68.405093 
L 71.652735 68.807416 
L 72.271677 70.283989 
L 72.89062 65.047736 
L 73.509563 72.674423 
L 74.128505 69.052347 
L 74.747448 66.373155 
L 75.36639 75.791038 
L 75.985333 72.876397 
L 76.604275 71.545866 
L 77.223218 72.717513 
L 77.842161 82.917179 
L 78.461103 72.65031 
L 79.080046 71.291554 
L 79.698988 72.805932 
L 80.317931 73.695416 
L 80.936873 74.978203 
L 81.555816 74.328554 
L 82.174758 75.748469 
L 82.793701 74.612479 
L 83.412644 74.52191 
L 84.031586 73.993262 
L 84.650529 74.62686 
L 85.269471 90.373593 
L 85.888414 71.247784 
L 86.507356 84.612869 
L 87.126299 70.564555 
L 87.745242 73.322734 
L 88.364184 70.519019 
L 88.983127 76.423506 
L 89.602069 73.22032 
L 90.221012 73.901362 
L 90.839954 72.864664 
L 91.458897 83.410028 
L 92.077839 75.198356 
L 92.696782 73.204056 
L 93.315725 79.654376 
L 93.934667 75.994514 
L 94.55361 93.096774 
L 95.172552 79.438003 
L 95.791495 74.987925 
L 96.410437 74.621483 
L 97.02938 74.057822 
L 97.648323 74.16571 
L 98.267265 75.93588 
L 98.886208 74.186783 
L 99.50515 74.637971 
L 100.124093 75.362534 
L 100.743035 74.947222 
L 101.361978 76.857834 
L 101.980921 75.585995 
L 102.599863 75.31497 
L 103.218806 72.921283 
L 103.837748 81.188152 
L 104.456691 80.109477 
L 105.075633 71.16476 
L 105.694576 82.298093 
L 106.313518 68.443036 
L 106.932461 70.357384 
L 107.551404 78.681172 
L 108.170346 78.001547 
L 108.789289 75.220017 
L 109.408231 74.234044 
L 110.027174 75.358823 
L 110.646116 78.561564 
L 111.265059 74.634574 
L 111.884002 81.389567 
L 112.502944 73.215343 
L 113.121887 78.077143 
L 113.740829 75.906054 
L 114.359772 74.612595 
L 114.978714 76.707992 
L 115.597657 75.654306 
L 116.835542 74.91584 
L 117.454485 76.269341 
L 118.073427 75.356015 
L 118.69237 75.448043 
L 119.311312 78.585942 
L 119.930255 75.268318 
L 120.549197 76.10382 
L 121.16814 75.982984 
L 121.787083 77.867971 
L 122.406025 74.583589 
L 123.024968 73.9905 
L 123.64391 74.248588 
L 124.262853 80.280393 
L 124.881795 75.487621 
L 125.500738 75.844601 
L 126.11968 77.765051 
L 126.738623 71.668186 
L 127.357566 73.890361 
L 127.976508 69.962849 
L 128.595451 74.952083 
L 129.214393 79.008879 
L 129.833336 75.60213 
L 130.452278 76.660359 
L 131.071221 75.689527 
L 131.690164 75.705047 
L 132.309106 78.530463 
L 132.928049 75.167926 
L 133.546991 78.320391 
L 134.165934 76.401916 
L 134.784876 75.693364 
L 135.403819 75.675551 
L 136.022762 75.966216 
L 136.641704 76.524673 
L 137.260647 79.292028 
L 137.879589 79.167839 
L 138.498532 76.472462 
L 139.117474 79.539656 
L 139.736417 79.030066 
L 140.355359 81.927028 
L 140.974302 74.522706 
L 141.593245 74.383839 
L 142.212187 80.684016 
L 142.83113 79.962056 
L 143.450072 76.158346 
L 144.069015 76.076402 
L 144.687957 81.561239 
L 145.3069 80.063167 
L 145.925843 79.139154 
L 146.544785 75.832349 
L 147.163728 78.896315 
L 147.78267 80.254949 
L 148.401613 75.448999 
L 149.020555 79.06411 
L 149.639498 79.989026 
L 150.25844 75.423998 
L 150.877383 77.898454 
L 151.496326 79.356746 
L 152.115268 78.070368 
L 152.734211 79.659795 
L 153.353153 71.807126 
L 153.972096 74.706182 
L 154.591038 75.745788 
L 155.209981 78.987899 
L 155.828924 77.233755 
L 156.447866 78.53025 
L 157.066809 77.867545 
L 157.685751 76.318164 
L 158.304694 79.344798 
L 158.923636 70.592519 
L 158.923636 70.592519 
" clip-path="url(#pa5f23d3a30)" style="fill: none; stroke: #3700cc; stroke-linecap: square"/>
   </g>
   <g id="patch_3">
    <path d="M 3.6 104.32 
L 3.6 3.6 
" style="fill: none; stroke: #000000; stroke-width: 0.5; stroke-linejoin: miter; stroke-linecap: square"/>
   </g>
   <g id="patch_4">
    <path d="M 3.6 104.32 
L 166.32 104.32 
" style="fill: none; stroke: #000000; stroke-width: 0.5; stroke-linejoin: miter; stroke-linecap: square"/>
   </g>
  </g>
 </g>
 <defs>
  <clipPath id="pa5f23d3a30">
   <rect x="3.6" y="3.6" width="162.72" height="100.72"/>
  </clipPath>
 </defs>
</svg>
