<?xml version="1.0" encoding="utf-8" standalone="no"?>
<!DOCTYPE svg PUBLIC "-//W3C//DTD SVG 1.1//EN"
  "http://www.w3.org/Graphics/SVG/1.1/DTD/svg11.dtd">
<svg xmlns:xlink="http://www.w3.org/1999/xlink" width="169.92pt" height="107.92pt" viewBox="0 0 169.92 107.92" xmlns="http://www.w3.org/2000/svg" version="1.1">
 <metadata>
  <rdf:RDF xmlns:dc="http://purl.org/dc/elements/1.1/" xmlns:cc="http://creativecommons.org/ns#" xmlns:rdf="http://www.w3.org/1999/02/22-rdf-syntax-ns#">
   <cc:Work>
    <dc:type rdf:resource="http://purl.org/dc/dcmitype/StillImage"/>
    <dc:date>2024-05-09T14:08:37.354545</dc:date>
    <dc:format>image/svg+xml</dc:format>
    <dc:creator>
     <cc:Agent>
      <dc:title>Matplotlib v3.8.4, https://matplotlib.org/</dc:title>
     </cc:Agent>
    </dc:creator>
   </cc:Work>
  </rdf:RDF>
 </metadata>
 <defs>
  <style type="text/css">*{stroke-linejoin: round; stroke-linecap: butt}</style>
 </defs>
 <g id="figure_1">
  <g id="patch_1">
   <path d="M 0 107.92 
L 169.92 107.92 
L 169.92 0 
L 0 0 
z
" style="fill: #ffffff"/>
  </g>
  <g id="axes_1">
   <g id="patch_2">
    <path d="M 3.6 104.32 
L 166.32 104.32 
L 166.32 3.6 
L 3.6 3.6 
z
" style="fill: #ffffff"/>
   </g>
   <g id="matplotlib.axis_1"/>
   <g id="matplotlib.axis_2"/>
   <g id="line2d_1">
    <path d="M 10.996364 14.748391 
L 11.615306 15.495855 
L 12.234249 14.490241 
L 12.853191 35.385359 
L 13.472134 9.005023 
L 14.091076 53.390426 
L 14.710019 23.562219 
L 15.328962 8.178182 
L 15.947904 19.77934 
L 16.566847 20.322961 
L 17.185789 13.554322 
L 18.423674 17.473576 
L 19.66156 20.714542 
L 20.280502 8.19295 
L 20.899445 14.011329 
L 21.518387 22.740754 
L 22.13733 21.193097 
L 22.756272 27.227395 
L 23.375215 22.136679 
L 23.994157 27.928926 
L 24.6131 27.961166 
L 25.232043 26.116069 
L 25.850985 23.17175 
L 26.469928 28.855261 
L 27.08887 32.879734 
L 27.707813 31.95101 
L 28.326755 33.569289 
L 28.945698 31.097812 
L 29.564641 53.634836 
L 30.183583 24.553915 
L 30.802526 39.668891 
L 31.421468 32.61048 
L 32.040411 60.902676 
L 33.278296 44.711241 
L 33.897238 44.293144 
L 34.516181 46.445322 
L 35.135124 43.161357 
L 35.754066 42.286047 
L 36.373009 44.909403 
L 36.991951 48.090865 
L 37.610894 46.971526 
L 38.848779 52.130846 
L 39.467722 49.235615 
L 40.086664 53.589508 
L 40.705607 54.180573 
L 41.324549 56.645438 
L 41.943492 58.542951 
L 42.562434 58.588251 
L 43.181377 61.522535 
L 43.80032 62.137255 
L 44.419262 64.219722 
L 45.038205 67.872008 
L 45.657147 69.580686 
L 46.27609 66.944708 
L 46.895032 72.340904 
L 47.513975 69.786657 
L 48.132917 93.51838 
L 48.75186 50.765552 
L 49.370803 64.72114 
L 49.989745 89.37996 
L 50.608688 62.707032 
L 51.22763 89.336553 
L 51.846573 70.700644 
L 52.465515 87.908702 
L 53.084458 86.198429 
L 53.703401 66.578367 
L 54.322343 90.171673 
L 54.941286 73.122503 
L 55.560228 68.376925 
L 56.179171 76.772462 
L 56.798113 70.788896 
L 57.417056 90.850815 
L 58.035998 85.896905 
L 58.654941 73.022074 
L 59.273884 71.43844 
L 59.892826 73.17854 
L 60.511769 73.75268 
L 61.130711 71.187697 
L 62.368596 71.242225 
L 62.987539 73.659628 
L 64.225424 75.785596 
L 64.844367 77.714717 
L 65.463309 76.474168 
L 66.082252 71.329632 
L 66.701194 99.741818 
L 67.320137 72.245262 
L 67.939079 69.300921 
L 68.558022 68.309253 
L 69.176965 71.52805 
L 69.795907 86.850137 
L 70.41485 92.636864 
L 71.033792 95.880982 
L 71.652735 74.436856 
L 72.271677 69.206961 
L 72.89062 85.99071 
L 73.509563 76.702076 
L 74.128505 88.421513 
L 74.747448 88.081909 
L 75.36639 74.582927 
L 75.985333 78.760598 
L 76.604275 73.865817 
L 77.223218 76.045161 
L 77.842161 76.466428 
L 78.461103 74.249511 
L 79.080046 74.680792 
L 79.698988 76.923689 
L 80.317931 77.034963 
L 80.936873 78.436799 
L 81.555816 83.949115 
L 82.174758 81.614312 
L 82.793701 78.782754 
L 83.412644 79.819842 
L 84.031586 78.562475 
L 84.650529 84.846642 
L 85.269471 75.746396 
L 85.888414 78.930439 
L 86.507356 73.872102 
L 87.126299 72.67787 
L 87.745242 75.404749 
L 88.364184 71.283294 
L 88.983127 75.736078 
L 89.602069 75.937331 
L 90.221012 79.111973 
L 90.839954 77.557721 
L 91.458897 85.620122 
L 92.077839 86.565636 
L 92.696782 85.691934 
L 93.315725 78.23788 
L 94.55361 88.593502 
L 95.172552 80.069958 
L 95.791495 78.710444 
L 96.410437 81.6195 
L 97.02938 77.892373 
L 97.648323 79.518563 
L 98.267265 78.557406 
L 98.886208 80.571474 
L 99.50515 80.947095 
L 100.124093 79.512622 
L 101.361978 79.744008 
L 101.980921 80.557535 
L 102.599863 84.528463 
L 103.218806 77.80558 
L 103.837748 89.863133 
L 104.456691 74.414862 
L 105.075633 78.124399 
L 105.694576 88.773734 
L 106.313518 89.603587 
L 106.932461 78.883396 
L 107.551404 83.955389 
L 108.170346 74.981819 
L 108.789289 79.15485 
L 109.408231 78.504762 
L 110.027174 86.895145 
L 110.646116 75.483995 
L 111.265059 86.262514 
L 111.884002 78.240874 
L 112.502944 87.297626 
L 113.121887 79.926155 
L 113.740829 86.737505 
L 114.359772 84.352925 
L 114.978714 86.05414 
L 115.597657 78.832649 
L 116.216599 78.915817 
L 116.835542 80.948844 
L 117.454485 81.17318 
L 118.073427 80.874848 
L 118.69237 79.493268 
L 119.930255 81.334033 
L 120.549197 81.42564 
L 121.16814 80.999211 
L 121.787083 80.019803 
L 122.406025 82.12948 
L 123.024968 80.468326 
L 123.64391 84.059874 
L 124.262853 78.922237 
L 124.881795 80.91454 
L 125.500738 79.249842 
L 126.11968 79.087413 
L 126.738623 80.106077 
L 127.357566 87.271603 
L 127.976508 87.639396 
L 128.595451 80.551356 
L 129.214393 82.317143 
L 129.833336 81.12927 
L 130.452278 83.113292 
L 131.071221 80.340045 
L 131.690164 83.584767 
L 132.309106 86.187434 
L 132.928049 80.906151 
L 133.546991 81.464895 
L 134.784876 83.532754 
L 135.403819 81.407526 
L 136.022762 81.619766 
L 136.641704 82.896199 
L 137.260647 80.90657 
L 137.879589 80.286008 
L 138.498532 83.42974 
L 139.117474 82.678266 
L 139.736417 81.621996 
L 140.355359 73.064716 
L 140.974302 86.529738 
L 141.593245 84.393134 
L 142.212187 86.0506 
L 142.83113 79.79018 
L 143.450072 83.197188 
L 144.069015 80.026352 
L 144.687957 81.620842 
L 145.3069 79.67876 
L 145.925843 82.895347 
L 146.544785 80.608994 
L 147.163728 81.110354 
L 147.78267 83.229355 
L 148.401613 84.216513 
L 149.020555 83.098693 
L 149.639498 80.153004 
L 150.25844 80.559676 
L 150.877383 81.214651 
L 151.496326 79.646081 
L 152.115268 81.186635 
L 152.734211 83.174752 
L 153.353153 79.780169 
L 153.972096 79.713987 
L 154.591038 84.03977 
L 155.209981 84.385231 
L 155.828924 80.164238 
L 157.066809 82.818484 
L 157.685751 83.096579 
L 158.304694 77.688545 
L 158.923636 87.627139 
L 158.923636 87.627139 
" clip-path="url(#p56ce4cc0cf)" style="fill: none; stroke: #3700cc; stroke-linecap: square"/>
   </g>
   <g id="patch_3">
    <path d="M 3.6 104.32 
L 3.6 3.6 
" style="fill: none; stroke: #000000; stroke-width: 0.5; stroke-linejoin: miter; stroke-linecap: square"/>
   </g>
   <g id="patch_4">
    <path d="M 3.6 104.32 
L 166.32 104.32 
" style="fill: none; stroke: #000000; stroke-width: 0.5; stroke-linejoin: miter; stroke-linecap: square"/>
   </g>
  </g>
 </g>
 <defs>
  <clipPath id="p56ce4cc0cf">
   <rect x="3.6" y="3.6" width="162.72" height="100.72"/>
  </clipPath>
 </defs>
</svg>
