<?xml version="1.0" encoding="utf-8" standalone="no"?>
<!DOCTYPE svg PUBLIC "-//W3C//DTD SVG 1.1//EN"
  "http://www.w3.org/Graphics/SVG/1.1/DTD/svg11.dtd">
<svg xmlns:xlink="http://www.w3.org/1999/xlink" width="169.92pt" height="107.92pt" viewBox="0 0 169.92 107.92" xmlns="http://www.w3.org/2000/svg" version="1.1">
 <metadata>
  <rdf:RDF xmlns:dc="http://purl.org/dc/elements/1.1/" xmlns:cc="http://creativecommons.org/ns#" xmlns:rdf="http://www.w3.org/1999/02/22-rdf-syntax-ns#">
   <cc:Work>
    <dc:type rdf:resource="http://purl.org/dc/dcmitype/StillImage"/>
    <dc:date>2024-05-15T16:54:39.796145</dc:date>
    <dc:format>image/svg+xml</dc:format>
    <dc:creator>
     <cc:Agent>
      <dc:title>Matplotlib v3.8.4, https://matplotlib.org/</dc:title>
     </cc:Agent>
    </dc:creator>
   </cc:Work>
  </rdf:RDF>
 </metadata>
 <defs>
  <style type="text/css">*{stroke-linejoin: round; stroke-linecap: butt}</style>
 </defs>
 <g id="figure_1">
  <g id="patch_1">
   <path d="M 0 107.92 
L 169.92 107.92 
L 169.92 0 
L 0 0 
z
" style="fill: #ffffff"/>
  </g>
  <g id="axes_1">
   <g id="patch_2">
    <path d="M 3.6 104.32 
L 166.32 104.32 
L 166.32 3.6 
L 3.6 3.6 
z
" style="fill: #ffffff"/>
   </g>
   <g id="matplotlib.axis_1"/>
   <g id="matplotlib.axis_2"/>
   <g id="line2d_1">
    <path d="M 10.996364 21.623775 
L 11.615306 24.488693 
L 12.234249 8.858736 
L 12.853191 21.090729 
L 13.472134 13.403118 
L 14.091076 20.286902 
L 14.710019 17.065199 
L 15.328962 23.249641 
L 15.947904 11.283998 
L 16.566847 25.162475 
L 17.185789 15.240225 
L 17.804732 31.054069 
L 18.423674 21.263878 
L 19.042617 24.159732 
L 19.66156 24.957937 
L 20.280502 8.178182 
L 20.899445 25.688187 
L 21.518387 24.437283 
L 22.13733 23.828698 
L 22.756272 22.785742 
L 23.375215 30.282979 
L 23.994157 26.979951 
L 24.6131 30.735264 
L 25.232043 28.312717 
L 25.850985 27.619489 
L 26.469928 31.274522 
L 27.08887 30.284411 
L 27.707813 35.931669 
L 28.326755 36.9315 
L 28.945698 40.17011 
L 29.564641 34.045289 
L 30.183583 76.399914 
L 30.802526 50.37875 
L 31.421468 49.566281 
L 32.040411 49.491216 
L 32.659353 50.94722 
L 33.278296 43.3594 
L 33.897238 46.865166 
L 34.516181 45.432154 
L 35.135124 45.938004 
L 35.754066 45.022261 
L 36.373009 49.38137 
L 36.991951 49.171497 
L 37.610894 47.226308 
L 38.848779 53.195153 
L 39.467722 54.082903 
L 40.086664 53.45395 
L 40.705607 57.864128 
L 41.324549 56.478944 
L 41.943492 59.329226 
L 42.562434 63.406222 
L 43.181377 61.948978 
L 43.80032 64.9515 
L 44.419262 67.21346 
L 45.038205 71.069284 
L 45.657147 70.639115 
L 46.27609 69.39358 
L 46.895032 73.676687 
L 47.513975 73.330765 
L 48.132917 55.975668 
L 48.75186 72.755645 
L 49.370803 74.781001 
L 49.989745 72.94115 
L 50.608688 88.094807 
L 51.22763 86.13707 
L 51.846573 70.894229 
L 52.465515 94.716392 
L 53.084458 69.826368 
L 53.703401 99.741818 
L 54.322343 92.416044 
L 54.941286 88.943159 
L 55.560228 73.685533 
L 56.179171 75.603187 
L 56.798113 91.541202 
L 57.417056 88.397169 
L 58.035998 71.452316 
L 58.654941 73.183979 
L 59.273884 75.588843 
L 59.892826 72.760071 
L 60.511769 77.02744 
L 61.130711 74.846807 
L 61.749654 75.153331 
L 62.368596 76.6072 
L 62.987539 74.100006 
L 63.606482 74.501051 
L 64.225424 77.982559 
L 64.844367 77.381509 
L 65.463309 88.339646 
L 66.082252 87.660555 
L 66.701194 68.135624 
L 67.320137 96.907817 
L 67.939079 89.962125 
L 68.558022 94.207981 
L 69.176965 69.391377 
L 69.795907 73.594601 
L 70.41485 87.797313 
L 71.033792 72.09189 
L 71.652735 73.172918 
L 72.271677 72.177755 
L 72.89062 73.691782 
L 73.509563 76.541667 
L 74.128505 89.353712 
L 74.747448 78.033816 
L 75.36639 76.828726 
L 75.985333 90.551369 
L 76.604275 76.8939 
L 77.223218 79.222175 
L 78.461103 75.187699 
L 79.080046 78.218001 
L 79.698988 77.240883 
L 80.317931 78.966597 
L 81.555816 79.180506 
L 82.174758 84.263324 
L 82.793701 83.093208 
L 83.412644 78.910635 
L 84.031586 79.851891 
L 84.650529 75.399324 
L 85.269471 71.785077 
L 85.888414 79.632012 
L 86.507356 92.455306 
L 87.126299 86.43541 
L 87.745242 78.90194 
L 88.364184 88.496686 
L 88.983127 78.548925 
L 89.602069 77.004228 
L 90.221012 86.923957 
L 90.839954 87.736145 
L 91.458897 87.807109 
L 92.077839 86.631704 
L 92.696782 78.90653 
L 93.315725 84.691043 
L 93.934667 85.578484 
L 94.55361 76.354733 
L 95.172552 80.429472 
L 95.791495 79.028073 
L 96.410437 81.533427 
L 97.02938 79.735349 
L 97.648323 81.400123 
L 98.267265 81.693422 
L 98.886208 81.069284 
L 99.50515 82.4126 
L 100.124093 81.041336 
L 100.743035 80.860454 
L 101.361978 80.010544 
L 101.980921 80.280613 
L 102.599863 82.133307 
L 103.218806 74.26014 
L 103.837748 88.625301 
L 105.075633 78.279801 
L 105.694576 79.867491 
L 106.313518 73.455652 
L 106.932461 79.557735 
L 108.170346 76.709642 
L 108.789289 82.317102 
L 109.408231 79.418455 
L 110.027174 82.3281 
L 110.646116 78.563249 
L 111.265059 79.948156 
L 111.884002 85.998963 
L 112.502944 87.388728 
L 113.121887 89.378251 
L 113.740829 86.314448 
L 114.359772 78.637047 
L 114.978714 80.269491 
L 115.597657 82.866611 
L 116.835542 80.855535 
L 117.454485 84.094755 
L 118.073427 81.705677 
L 118.69237 82.666303 
L 119.311312 81.356371 
L 119.930255 83.689436 
L 120.549197 80.802736 
L 121.16814 81.917427 
L 121.787083 81.348806 
L 122.406025 78.018321 
L 123.024968 87.563577 
L 123.64391 89.19771 
L 124.262853 80.455595 
L 124.881795 84.922925 
L 125.500738 84.838851 
L 126.11968 85.627816 
L 126.738623 78.40242 
L 127.357566 86.639596 
L 127.976508 87.295187 
L 128.595451 81.395603 
L 129.214393 81.794035 
L 129.833336 81.199829 
L 130.452278 80.860657 
L 131.071221 81.932344 
L 131.690164 82.75542 
L 132.309106 84.90503 
L 132.928049 83.388642 
L 133.546991 84.955899 
L 134.165934 82.047329 
L 134.784876 81.641032 
L 135.403819 82.448565 
L 136.022762 82.544653 
L 136.641704 82.248005 
L 137.260647 84.835734 
L 137.879589 82.74389 
L 138.498532 84.183931 
L 139.117474 83.853075 
L 139.736417 85.150448 
L 140.355359 94.59655 
L 140.974302 85.220792 
L 141.593245 80.212105 
L 142.212187 87.229903 
L 142.83113 80.81725 
L 143.450072 78.741401 
L 144.069015 80.755902 
L 145.3069 81.700041 
L 145.925843 81.624607 
L 146.544785 81.273491 
L 147.163728 82.42391 
L 147.78267 84.956682 
L 148.401613 81.845308 
L 149.020555 85.577616 
L 149.639498 84.257039 
L 150.25844 85.706595 
L 150.877383 82.173344 
L 151.496326 81.793678 
L 152.115268 84.225631 
L 152.734211 84.21609 
L 153.353153 89.807973 
L 153.972096 80.778486 
L 154.591038 85.79176 
L 155.209981 82.312909 
L 156.447866 81.680184 
L 157.066809 81.973305 
L 157.685751 83.893403 
L 158.304694 79.74776 
L 158.923636 77.822083 
L 158.923636 77.822083 
" clip-path="url(#pb0896cdb46)" style="fill: none; stroke: #3700cc; stroke-linecap: square"/>
   </g>
   <g id="patch_3">
    <path d="M 3.6 104.32 
L 3.6 3.6 
" style="fill: none; stroke: #000000; stroke-width: 0.5; stroke-linejoin: miter; stroke-linecap: square"/>
   </g>
   <g id="patch_4">
    <path d="M 3.6 104.32 
L 166.32 104.32 
" style="fill: none; stroke: #000000; stroke-width: 0.5; stroke-linejoin: miter; stroke-linecap: square"/>
   </g>
  </g>
 </g>
 <defs>
  <clipPath id="pb0896cdb46">
   <rect x="3.6" y="3.6" width="162.72" height="100.72"/>
  </clipPath>
 </defs>
</svg>
